<svg width="473" height="48" viewBox="0 0 473 48" fill="none" xmlns="http://www.w3.org/2000/svg">
<path d="M45.44 45V47H46.7109L47.2507 45.8494L45.44 45ZM24.328 45L22.543 45.9021L23.0979 47H24.328V45ZM3.272 3.336V1.336H0.02035L1.487 4.2381L3.272 3.336ZM21.304 3.336L23.1059 2.46805L22.5605 1.336H21.304V3.336ZM35.304 32.4L33.5021 33.2679L35.36 37.1249L37.1259 33.225L35.304 32.4ZM48.464 3.336V1.336H47.1741L46.6421 2.51104L48.464 3.336ZM64.984 3.336L66.7947 4.18537L68.1313 1.336H64.984V3.336ZM45.44 43H24.328V47H45.44V43ZM26.113 44.0979L5.057 2.4339L1.487 4.2381L22.543 45.9021L26.113 44.0979ZM3.272 5.336H21.304V1.336H3.272V5.336ZM19.5021 4.20394L33.5021 33.2679L37.1059 31.5321L23.1059 2.46805L19.5021 4.20394ZM37.1259 33.225L50.2859 4.16096L46.6421 2.51104L33.4821 31.575L37.1259 33.225ZM48.464 5.336H64.984V1.336H48.464V5.336ZM63.1733 2.48663L43.6293 44.1506L47.2507 45.8494L66.7947 4.18537L63.1733 2.48663ZM93.5186 27.864V29.864H96.7209L95.3158 26.9865L93.5186 27.864ZM86.5186 13.528L88.3158 12.6505L86.4967 8.92499L84.7132 12.6676L86.5186 13.528ZM79.6866 27.864L77.8812 27.0036L76.518 29.864H79.6866V27.864ZM101.863 45L100.062 45.8703L100.608 47H101.863V45ZM98.6146 38.28L100.415 37.4097L99.8693 36.28H98.6146V38.28ZM74.8146 38.28V36.28H73.5505L73.0081 37.4219L74.8146 38.28ZM71.6226 45V47H72.8868L73.4292 45.8581L71.6226 45ZM55.4946 45L53.7019 44.1133L52.2741 47H55.4946V45ZM76.1026 3.336V1.336H74.8606L74.3099 2.44929L76.1026 3.336ZM97.4946 3.336L99.267 2.40932L98.7058 1.336H97.4946V3.336ZM119.279 45V47H122.581L121.051 44.0733L119.279 45ZM95.3158 26.9865L88.3158 12.6505L84.7214 14.4055L91.7214 28.7415L95.3158 26.9865ZM84.7132 12.6676L77.8812 27.0036L81.4921 28.7244L88.3241 14.3884L84.7132 12.6676ZM79.6866 29.864H93.5186V25.864H79.6866V29.864ZM103.663 44.1297L100.415 37.4097L96.8139 39.1503L100.062 45.8703L103.663 44.1297ZM98.6146 36.28H74.8146V40.28H98.6146V36.28ZM73.0081 37.4219L69.8161 44.1419L73.4292 45.8581L76.6212 39.1381L73.0081 37.4219ZM71.6226 43H55.4946V47H71.6226V43ZM57.2873 45.8867L77.8953 4.22271L74.3099 2.44929L53.7019 44.1133L57.2873 45.8867ZM76.1026 5.336H97.4946V1.336H76.1026V5.336ZM95.7223 4.26268L117.506 45.9267L121.051 44.0733L99.267 2.40932L95.7223 4.26268ZM119.279 43H101.863V47H119.279V43ZM121.094 3.336V1.336H119.094V3.336H121.094ZM136.998 3.336H138.998V1.336H136.998V3.336ZM136.998 33.072H134.998V35.072H136.998V33.072ZM165.894 33.072H167.894V31.072H165.894V33.072ZM165.894 45V47H167.894V45H165.894ZM121.094 45H119.094V47H121.094V45ZM121.094 5.336H136.998V1.336H121.094V5.336ZM134.998 3.336V33.072H138.998V3.336H134.998ZM136.998 35.072H165.894V31.072H136.998V35.072ZM163.894 33.072V45H167.894V33.072H163.894ZM165.894 43H121.094V47H165.894V43ZM123.094 45V3.336H119.094V45H123.094ZM210.28 3.336L209.94 5.30678L209.953 5.30915L209.967 5.31133L210.28 3.336ZM217.952 5.296L217.21 7.15295L217.23 7.16102L217.25 7.16866L217.952 5.296ZM223.384 8.264L222.154 9.84063L222.175 9.85718L222.197 9.87315L223.384 8.264ZM227.08 11.792L228.68 10.592V10.592L227.08 11.792ZM229.208 15.712L227.332 16.4034L227.34 16.425L227.348 16.4463L229.208 15.712ZM230.272 19.576L228.289 19.8319L228.293 19.8633L228.298 19.8945L230.272 19.576ZM230.272 28.536L228.298 28.2175L228.293 28.2487L228.289 28.2801L230.272 28.536ZM229.208 32.456L227.342 31.738L227.337 31.7513L227.332 31.7646L229.208 32.456ZM227.08 36.432L225.463 35.2556L225.456 35.2647L227.08 36.432ZM223.44 40.016L222.228 38.4251L223.44 40.016ZM218.008 43.04L218.751 44.897L218.008 43.04ZM210.336 45L210.023 43.0247L210.009 43.0268L209.996 43.0292L210.336 45ZM187.488 45L187.825 43.0285L187.815 43.0269L187.805 43.0253L187.488 45ZM179.816 43.04L179.074 44.897L179.085 44.9015L179.816 43.04ZM174.384 40.016L173.172 41.6069L174.384 40.016ZM170.688 36.432L169.048 37.5756L169.067 37.6041L169.088 37.632L170.688 36.432ZM168.56 32.456L166.678 33.1317L166.689 33.1612L166.7 33.1903L168.56 32.456ZM167.496 28.536L165.513 28.7919L165.517 28.8233L165.522 28.8545L167.496 28.536ZM167.496 19.576L165.522 19.2575L165.517 19.2887L165.513 19.3201L167.496 19.576ZM168.56 15.712L166.7 14.9777L166.692 14.999L166.684 15.0206L168.56 15.712ZM170.688 11.792L169.088 10.592L169.076 10.6082L169.064 10.6247L170.688 11.792ZM174.384 8.264L175.572 9.87315L175.584 9.8641L175.596 9.85486L174.384 8.264ZM179.816 5.296L180.53 7.16443L180.539 7.16101L180.548 7.1575L179.816 5.296ZM187.488 3.336L187.805 5.31073L187.815 5.30915L187.825 5.30747L187.488 3.336ZM213.416 20.192L211.568 20.9567L211.573 20.9683L211.578 20.9798L213.416 20.192ZM211.12 17.056L209.732 18.4957L209.745 18.5078L209.758 18.5198L211.12 17.056ZM206.416 14.648L206.966 12.7249L206.416 14.648ZM191.296 14.648L190.747 12.7249L191.296 14.648ZM186.592 17.056L187.981 18.4957V18.4957L186.592 17.056ZM184.352 20.192L182.504 19.4273L182.497 19.4439L182.491 19.4607L184.352 20.192ZM184.408 27.808L182.551 28.5508L182.556 28.5618L182.56 28.5727L184.408 27.808ZM186.648 31.056L185.21 32.4452L185.222 32.4578L185.234 32.4702L186.648 31.056ZM191.352 33.576L190.771 35.4898L190.781 35.4926L191.352 33.576ZM206.416 33.632L206.966 35.555L206.977 35.5519L206.988 35.5486L206.416 33.632ZM211.176 31.112L212.591 32.5262V32.5262L211.176 31.112ZM213.416 27.92L215.264 28.6847L215.269 28.6738L215.273 28.6628L213.416 27.92ZM197.68 4.552H200.2V0.551999H197.68V4.552ZM200.2 4.552C203.804 4.552 207.048 4.80701 209.94 5.30678L210.621 1.36522C207.465 0.819651 203.988 0.551999 200.2 0.551999V4.552ZM209.967 5.31133C212.935 5.78186 215.337 6.40408 217.21 7.15295L218.695 3.43904C216.461 2.54526 213.748 1.8608 210.594 1.36067L209.967 5.31133ZM217.25 7.16866C219.179 7.89184 220.805 8.78799 222.154 9.84063L224.615 6.68737C222.902 5.35067 220.907 4.26816 218.655 3.42334L217.25 7.16866ZM222.197 9.87315C223.653 10.948 224.73 11.9922 225.48 12.992L228.68 10.592C227.638 9.20251 226.252 7.89464 224.572 6.65485L222.197 9.87315ZM225.48 12.992C226.259 14.0295 226.875 15.1645 227.332 16.4034L231.085 15.0206C230.496 13.4222 229.694 11.9438 228.68 10.592L225.48 12.992ZM227.348 16.4463C227.865 17.7554 228.166 18.8797 228.289 19.8319L232.256 19.3201C232.08 17.9576 231.672 16.5059 231.069 14.9777L227.348 16.4463ZM228.298 19.8945C228.466 20.9382 228.552 22.0446 228.552 23.216H232.552C232.552 21.8487 232.452 20.5284 232.247 19.2575L228.298 19.8945ZM228.552 23.216V24.896H232.552V23.216H228.552ZM228.552 24.896C228.552 26.0674 228.466 27.1737 228.298 28.2175L232.247 28.8545C232.452 27.5836 232.552 26.2633 232.552 24.896H228.552ZM228.289 28.2801C228.165 29.2365 227.862 30.3844 227.342 31.738L231.075 33.174C231.674 31.6156 232.081 30.1501 232.256 28.7919L228.289 28.2801ZM227.332 31.7646C226.873 33.0091 226.251 34.1715 225.463 35.2557L228.698 37.6083C229.701 36.2285 230.498 34.7402 231.085 33.1474L227.332 31.7646ZM225.456 35.2647C224.745 36.2545 223.689 37.3125 222.228 38.4251L224.652 41.6069C226.328 40.3302 227.699 38.9988 228.704 37.5993L225.456 35.2647ZM222.228 38.4251C220.82 39.4979 219.171 40.4208 217.266 41.183L218.751 44.897C220.952 44.0166 222.925 42.9234 224.652 41.6069L222.228 38.4251ZM217.266 41.183C215.393 41.9319 212.991 42.5541 210.023 43.0247L210.65 46.9753C213.804 46.4752 216.517 45.7907 218.751 44.897L217.266 41.183ZM209.996 43.0292C207.105 43.5288 203.843 43.784 200.2 43.784V47.784C204.024 47.784 207.519 47.5165 210.677 46.9708L209.996 43.0292ZM200.2 43.784H197.68V47.784H200.2V43.784ZM197.68 43.784C194.038 43.784 190.756 43.5289 187.825 43.0285L187.152 46.9715C190.344 47.5165 193.856 47.784 197.68 47.784V43.784ZM187.805 43.0253C184.876 42.5551 182.466 41.9323 180.548 41.1785L179.085 44.9015C181.348 45.7904 184.053 46.4742 187.171 46.9747L187.805 43.0253ZM180.559 41.183C178.653 40.4208 177.005 39.4979 175.596 38.4251L173.172 41.6069C174.9 42.9234 176.873 44.0166 179.074 44.897L180.559 41.183ZM175.596 38.4251C174.131 37.3088 173.045 36.2407 172.288 35.232L169.088 37.632C170.124 39.0127 171.501 40.3339 173.172 41.6069L175.596 38.4251ZM172.329 35.2884C171.561 34.1858 170.925 32.9981 170.421 31.7217L166.7 33.1903C167.316 34.7512 168.099 36.2142 169.048 37.5756L172.329 35.2884ZM170.443 31.7803C169.949 30.4059 169.633 29.2218 169.471 28.2175L165.522 28.8545C165.733 30.1649 166.126 31.5941 166.678 33.1317L170.443 31.7803ZM169.48 28.2801C169.342 27.2146 169.272 26.0871 169.272 24.896H165.272C165.272 26.2435 165.352 27.5427 165.513 28.7919L169.48 28.2801ZM169.272 24.896V23.216H165.272V24.896H169.272ZM169.272 23.216C169.272 22.0249 169.342 20.8974 169.48 19.8319L165.513 19.3201C165.352 20.5693 165.272 21.8685 165.272 23.216H169.272ZM169.471 19.8945C169.632 18.8947 169.947 17.7339 170.437 16.4034L166.684 15.0206C166.129 16.5274 165.734 17.9427 165.522 19.2575L169.471 19.8945ZM170.421 16.4463C170.922 15.1755 171.554 14.0151 172.312 12.9593L169.064 10.6247C168.106 11.9582 167.318 13.4111 166.7 14.9777L170.421 16.4463ZM172.288 12.992C173.038 11.9922 174.116 10.948 175.572 9.87315L173.197 6.65485C171.517 7.89464 170.13 9.20251 169.088 10.592L172.288 12.992ZM175.596 9.85486C176.996 8.78853 178.635 7.88796 180.53 7.16443L179.103 3.42756C176.891 4.27203 174.909 5.35013 173.172 6.67314L175.596 9.85486ZM180.548 7.1575C182.466 6.40372 184.876 5.78091 187.805 5.31073L187.171 1.36127C184.053 1.86176 181.348 2.54562 179.085 3.43449L180.548 7.1575ZM187.825 5.30747C190.756 4.80713 194.038 4.552 197.68 4.552V0.551999C193.856 0.551999 190.344 0.819532 187.152 1.36453L187.825 5.30747ZM216.088 24.392V23.608H212.088V24.392H216.088ZM216.088 23.608C216.088 22.1279 215.818 20.7186 215.255 19.4042L211.578 20.9798C211.911 21.7561 212.088 22.6241 212.088 23.608H216.088ZM215.264 19.4273C214.682 18.0195 213.723 16.746 212.483 15.5922L209.758 18.5198C210.684 19.3819 211.255 20.1992 211.568 20.9567L215.264 19.4273ZM212.509 15.6163C211.139 14.2957 209.227 13.3711 206.966 12.7249L205.867 16.571C207.787 17.1196 209.011 17.8003 209.732 18.4957L212.509 15.6163ZM206.966 12.7249C204.648 12.0626 201.952 11.752 198.912 11.752V15.752C201.697 15.752 204.004 16.0387 205.867 16.571L206.966 12.7249ZM198.912 11.752C195.804 11.752 193.069 12.0615 190.747 12.7249L191.846 16.571C193.705 16.0398 196.048 15.752 198.912 15.752V11.752ZM190.747 12.7249C188.485 13.3711 186.574 14.2957 185.204 15.6163L187.981 18.4957C188.702 17.8003 189.926 17.1196 191.846 16.571L190.747 12.7249ZM185.204 15.6163C184.007 16.7709 183.08 18.0373 182.504 19.4273L186.2 20.9567C186.521 20.1814 187.087 19.3571 187.981 18.4957L185.204 15.6163ZM182.491 19.4607C181.98 20.7606 181.736 22.15 181.736 23.608H185.736C185.736 22.602 185.903 21.7141 186.214 20.9233L182.491 19.4607ZM181.736 23.608V24.28H185.736V23.608H181.736ZM181.736 24.28C181.736 25.7609 182.007 27.1894 182.551 28.5508L186.265 27.0652C185.914 26.1866 185.736 25.2631 185.736 24.28H181.736ZM182.56 28.5727C183.127 29.943 184.037 31.2309 185.21 32.4452L188.087 29.6668C187.169 28.7157 186.585 27.8383 186.256 27.0433L182.56 28.5727ZM185.234 32.4702C186.597 33.8327 188.505 34.8018 190.771 35.4898L191.933 31.6622C190.018 31.0808 188.791 30.3699 188.063 29.6418L185.234 32.4702ZM190.781 35.4926C193.142 36.1967 195.863 36.528 198.912 36.528V32.528C196.137 32.528 193.819 32.2246 191.924 31.6594L190.781 35.4926ZM198.912 36.528C201.952 36.528 204.648 36.2174 206.966 35.555L205.867 31.709C204.004 32.2413 201.697 32.528 198.912 32.528V36.528ZM206.988 35.5486C209.287 34.8629 211.222 33.8951 212.591 32.5262L209.762 29.6978C209.04 30.4196 207.802 31.1318 205.845 31.7154L206.988 35.5486ZM212.591 32.5262C213.775 31.3418 214.693 30.0648 215.264 28.6847L211.568 27.1553C211.243 27.9405 210.668 28.7915 209.762 29.6978L212.591 32.5262ZM215.273 28.6628C215.818 27.3014 216.088 25.8729 216.088 24.392H212.088C212.088 25.3751 211.911 26.2986 211.559 27.1772L215.273 28.6628ZM250.42 13.472V11.472H248.42V13.472H250.42ZM250.42 20.64H248.42V22.64H250.42V20.64ZM250.42 30.72V28.72H248.42V30.72H250.42ZM250.42 45V47H252.42V45H250.42ZM234.516 45H232.516V47H234.516V45ZM234.516 3.336V1.336H232.516V3.336H234.516ZM286.82 21.312L285.61 19.7197L285.594 19.7316L285.579 19.7439L286.82 21.312ZM284.132 22.992L283.299 21.1739L283.284 21.1807L283.269 21.1877L284.132 22.992ZM281.5 23.944L281.015 22.0037L281.06 25.8951L281.5 23.944ZM287.772 27.416L286.279 28.7467L286.286 28.7549L286.294 28.763L287.772 27.416ZM290.852 44.72H292.852V44.2158L292.613 43.7718L290.852 44.72ZM290.852 45V47H292.852V45H290.852ZM274.612 45L273.126 46.3379L273.721 47H274.612V45ZM272.148 32.512L270.777 33.9684L270.799 33.9891L270.822 34.0092L272.148 32.512ZM248.42 13.472V20.64H252.42V13.472H248.42ZM250.42 22.64H268.676V18.64H250.42V22.64ZM268.676 22.64C270.471 22.64 272.182 22.3163 273.482 21.3485C274.893 20.2982 275.492 18.7445 275.492 17.056H271.492C271.492 17.7568 271.288 17.9952 271.094 18.1395C270.789 18.3664 270.092 18.64 268.676 18.64V22.64ZM275.492 17.056V17H271.492V17.056H275.492ZM275.492 17C275.492 15.3181 274.885 13.7768 273.47 12.7406C272.172 11.7894 270.467 11.472 268.676 11.472V15.472C270.096 15.472 270.799 15.7426 271.106 15.9674C271.297 16.1072 271.492 16.3299 271.492 17H275.492ZM268.676 11.472H250.42V15.472H268.676V11.472ZM248.42 30.72V45H252.42V30.72H248.42ZM250.42 43H234.516V47H250.42V43ZM236.516 45V3.336H232.516V45H236.516ZM234.516 5.336H272.372V1.336H234.516V5.336ZM272.372 5.336C278.076 5.336 282.019 6.2179 284.476 7.71724C286.773 9.11862 287.9 11.1284 287.9 14.032H291.9C291.9 9.80496 290.106 6.46671 286.56 4.30276C283.174 2.23677 278.353 1.336 272.372 1.336V5.336ZM287.9 14.032V14.648H291.9V14.032H287.9ZM287.9 14.648C287.9 15.7965 287.675 16.7822 287.26 17.6409L290.86 19.3831C291.565 17.9271 291.9 16.3368 291.9 14.648H287.9ZM287.26 17.6409C286.823 18.5426 286.269 19.2188 285.61 19.7197L288.03 22.9043C289.238 21.9865 290.177 20.7961 290.86 19.3831L287.26 17.6409ZM285.579 19.7439C284.789 20.3692 284.028 20.8395 283.299 21.1739L284.965 24.8101C286.028 24.3232 287.059 23.6734 288.062 22.8801L285.579 19.7439ZM283.269 21.1877C282.528 21.5423 281.777 21.8132 281.015 22.0037L281.985 25.8843C283.015 25.6268 284.019 25.2631 284.995 24.7963L283.269 21.1877ZM281.06 25.8951C283.38 26.4177 285.074 27.3944 286.279 28.7467L289.265 26.0853C287.409 24.0029 284.922 22.665 281.94 21.9929L281.06 25.8951ZM286.294 28.763C287.439 30.0196 288.068 31.6611 288.068 33.856H292.068C292.068 30.8242 291.167 28.1724 289.251 26.069L286.294 28.763ZM288.068 33.856V40.016H292.068V33.856H288.068ZM288.068 40.016C288.068 42.251 288.322 44.2403 289.091 45.6682L292.613 43.7718C292.337 43.2583 292.068 42.1116 292.068 40.016H288.068ZM288.852 44.72V45H292.852V44.72H288.852ZM290.852 43H274.612V47H290.852V43ZM276.099 43.6621C276.242 43.821 276.225 43.9069 276.183 43.7243C276.144 43.5574 276.108 43.2671 276.108 42.816H272.108C272.108 43.4475 272.156 44.0626 272.285 44.6237C272.411 45.1691 272.647 45.8057 273.126 46.3379L276.099 43.6621ZM276.108 42.816V37.944H272.108V42.816H276.108ZM276.108 37.944C276.108 35.1506 275.363 32.6876 273.474 31.0148L270.822 34.0092C271.547 34.651 272.108 35.8094 272.108 37.944H276.108ZM273.519 31.0556C271.683 29.3282 268.87 28.72 265.652 28.72V32.72C268.557 32.72 270.074 33.3065 270.777 33.9684L273.519 31.0556ZM265.652 28.72H250.42V32.72H265.652V28.72ZM329.44 27.864V29.864H332.643L331.238 26.9865L329.44 27.864ZM322.44 13.528L324.238 12.6505L322.419 8.92499L320.635 12.6676L322.44 13.528ZM315.608 27.864L313.803 27.0036L312.44 29.864H315.608V27.864ZM337.785 45L335.984 45.8703L336.53 47H337.785V45ZM334.536 38.28L336.337 37.4097L335.791 36.28H334.536V38.28ZM310.737 38.28V36.28H309.472L308.93 37.4219L310.737 38.28ZM307.544 45V47H308.809L309.351 45.8581L307.544 45ZM291.417 45L289.624 44.1133L288.196 47H291.417V45ZM312.025 3.336V1.336H310.782L310.232 2.44929L312.025 3.336ZM333.417 3.336L335.189 2.40932L334.628 1.336H333.417V3.336ZM355.201 45V47H358.503L356.973 44.0733L355.201 45ZM331.238 26.9865L324.238 12.6505L320.643 14.4055L327.643 28.7415L331.238 26.9865ZM320.635 12.6676L313.803 27.0036L317.414 28.7244L324.246 14.3884L320.635 12.6676ZM315.608 29.864H329.44V25.864H315.608V29.864ZM339.585 44.1297L336.337 37.4097L332.736 39.1503L335.984 45.8703L339.585 44.1297ZM334.536 36.28H310.737V40.28H334.536V36.28ZM308.93 37.4219L305.738 44.1419L309.351 45.8581L312.543 39.1381L308.93 37.4219ZM307.544 43H291.417V47H307.544V43ZM293.209 45.8867L313.817 4.22271L310.232 2.44929L289.624 44.1133L293.209 45.8867ZM312.025 5.336H333.417V1.336H312.025V5.336ZM331.644 4.26268L353.428 45.9267L356.973 44.0733L335.189 2.40932L331.644 4.26268ZM355.201 43H337.785V47H355.201V43ZM357.016 3.336V1.336H355.016V3.336H357.016ZM374.824 3.336L376.223 1.90698L375.64 1.336H374.824V3.336ZM399.016 27.024L397.617 28.453L401.016 31.7815V27.024H399.016ZM399.016 3.336V1.336H397.016V3.336H399.016ZM414.808 3.336H416.808V1.336H414.808V3.336ZM414.808 45V47H416.808V45H414.808ZM398.904 45L397.513 46.4372L398.095 47H398.904V45ZM372.808 19.744L374.199 18.3068L370.808 15.0251V19.744H372.808ZM372.808 45V47H374.808V45H372.808ZM357.016 45H355.016V47H357.016V45ZM357.016 5.336H374.824V1.336H357.016V5.336ZM373.425 4.76502L397.617 28.453L400.415 25.595L376.223 1.90698L373.425 4.76502ZM401.016 27.024V3.336H397.016V27.024H401.016ZM399.016 5.336H414.808V1.336H399.016V5.336ZM412.808 3.336V45H416.808V3.336H412.808ZM414.808 43H398.904V47H414.808V43ZM400.295 43.5628L374.199 18.3068L371.417 21.1812L397.513 46.4372L400.295 43.5628ZM370.808 19.744V45H374.808V19.744H370.808ZM372.808 43H357.016V47H372.808V43ZM359.016 45V3.336H355.016V45H359.016ZM436.868 45H434.868V47H436.868V45ZM436.868 14.704H438.868V12.704H436.868V14.704ZM418.892 14.704H416.892V16.704H418.892V14.704ZM418.892 3.336V1.336H416.892V3.336H418.892ZM470.748 3.336H472.748V1.336H470.748V3.336ZM470.748 14.704V16.704H472.748V14.704H470.748ZM452.772 14.704V12.704H450.772V14.704H452.772ZM452.772 45V47H454.772V45H452.772ZM438.868 45V14.704H434.868V45H438.868ZM436.868 12.704H418.892V16.704H436.868V12.704ZM420.892 14.704V3.336H416.892V14.704H420.892ZM418.892 5.336H470.748V1.336H418.892V5.336ZM468.748 3.336V14.704H472.748V3.336H468.748ZM470.748 12.704H452.772V16.704H470.748V12.704ZM450.772 14.704V45H454.772V14.704H450.772ZM452.772 43H436.868V47H452.772V43Z" fill="white"/>
</svg>
